<svg xmlns="http://www.w3.org/2000/svg" xmlns:xlink="http://www.w3.org/1999/xlink" viewBox="0 0 36 36">
  <defs>
    <mask id="mask" x="0" y="0" width="36" height="36" maskUnits="userSpaceOnUse">
      <g id="mask-2">
        <path id="path-1" d="M18,0A18,18,0,0,0,0,18H0A17.915,17.915,0,0,0,3.465,28.617h0L.617,35.394l6.827-2.815A17.908,17.908,0,0,0,18,36h0A18,18,0,0,0,36,18h0A18,18,0,0,0,18,0Z" style="fill: #fff;fill-rule: evenodd"/>
      </g>
    </mask>
    <linearGradient id="未命名的渐变" x1="-390.333" y1="307.526" x2="-390.333" y2="308.526" gradientTransform="matrix(36, 0, 0, -36, 14070, 11106.921)" gradientUnits="userSpaceOnUse">
      <stop offset="0" stop-color="#00c875"/>
      <stop offset="1" stop-color="#00e988"/>
    </linearGradient>
  </defs>
  <g id="图层_2" data-name="图层 2">
    <g id="图层_1-2" data-name="图层 1">
      <g style="mask: url(#mask)">
        <path id="Fill-1" d="M18,0A18,18,0,0,0,0,18H0A17.915,17.915,0,0,0,3.465,28.617h0L.617,35.394l6.827-2.815A17.908,17.908,0,0,0,18,36h0A18,18,0,0,0,36,18h0A18,18,0,0,0,18,0Z" style="fill-rule: evenodd;fill: url(#未命名的渐变)"/>
      </g>
      <g style="mask: url(#mask)">
        <path id="Fill-3" d="M10.007,23.685a1.971,1.971,0,0,1-.864-3.743L18.687,15.3l-9.6-5.079a1.97,1.97,0,1,1,1.843-3.483L23.96,13.626a1.972,1.972,0,0,1-.059,3.515L10.868,23.486a1.967,1.967,0,0,1-.861.2" style="fill: #fff;fill-rule: evenodd"/>
      </g>
      <g style="mask: url(#mask)">
        <path id="Fill-5" d="M25.994,29.5a1.958,1.958,0,0,1-.857-.2l-5.828-2.82a1.97,1.97,0,0,1-.065-3.514l5.828-3.092a1.97,1.97,0,1,1,1.847,3.481l-2.394,1.27,2.328,1.127a1.971,1.971,0,0,1-.859,3.745" style="fill: #fff;fill-rule: evenodd"/>
      </g>
    </g>
  </g>
</svg>
