<?xml version="1.0" encoding="UTF-8"?>
<svg width="36px" height="36px" viewBox="0 0 36 36" version="1.1" xmlns="http://www.w3.org/2000/svg" xmlns:xlink="http://www.w3.org/1999/xlink">
    <title>36</title>
    <defs>
        <linearGradient x1="50%" y1="100%" x2="50%" y2="0%" id="linearGradient-1">
            <stop stop-color="#00C875" offset="0%"></stop>
            <stop stop-color="#00E988" offset="100%"></stop>
        </linearGradient>
    </defs>
    <g id="36" stroke="none" stroke-width="1" fill="none" fill-rule="evenodd">
        <g id="方案六备份-18" transform="translate(2.000000, 2.000000)">
            <path d="M25.75,0 C29.2017797,0 32,2.79822031 32,6.25 L32,25.75 C32,29.2017797 29.2017797,32 25.75,32 L6.25,32 C2.79822031,32 0,29.2017797 0,25.75 L0,6.25 C0,2.79822031 2.79822031,0 6.25,0 L25.75,0 Z" id="路径" fill="url(#linearGradient-1)"></path>
            <g id="编组-2" transform="translate(4.500000, 4.500000)" fill="#FFFFFF">
                <path d="M11.5000926,0 C17.8518718,0 23,5.14816963 23,11.5 C23,17.8499774 17.8518718,23 11.5000926,23 C8.98031886,23 6.65046846,22.1889743 4.7554963,20.8139179 L0.39448477,22.6129238 L2.21367287,18.2830063 C0.822136648,16.3828306 0,14.0362851 0,11.5 C0,5.14816963 5.14812816,0 11.5000926,0 Z M17.7201299,13.2181627 C17.3942028,12.6042883 16.6324711,12.3702638 16.0176752,12.6961934 L16.0176752,12.6961934 L12.2946209,14.6717832 C11.875863,14.893949 11.6170113,15.3329072 11.6259053,15.8070709 C11.6347993,16.28142 11.9092154,16.7103724 12.3363114,16.9171589 L12.3363114,16.9171589 L16.059551,18.7189442 C16.2363187,18.804364 16.4230921,18.8447578 16.6070862,18.8447578 C17.0747609,18.8447578 17.5239066,18.5829394 17.7414383,18.1337901 C18.0443893,17.508057 17.7823877,16.7552132 17.156289,16.4520745 L17.156289,16.4520745 L15.6685867,15.7322127 L17.1981648,14.9204458 C17.8124048,14.5947014 18.0462422,13.832593 17.7201299,13.2181627 Z M6.39317323,4.15516805 C5.9416188,4.15516805 5.50507295,4.39901312 5.27938838,4.82611256 C4.9745266,5.40231465 5.16180814,6.10814917 5.69298541,6.46176943 L5.80376222,6.52765452 L11.9383802,9.77212796 L5.84119102,12.7407007 C5.25509208,13.0261092 4.98997742,13.706115 5.20997284,14.305131 L5.26048869,14.4237134 C5.45660079,14.8266137 5.83911946,15.077926 6.25392159,15.1241595 L6.39317323,15.1319017 C6.53186363,15.1319017 6.67211741,15.1089718 6.80846272,15.0610794 L6.94330253,15.004791 L15.2704702,10.9507742 C15.6541896,10.7638325 15.9140882,10.3973867 15.9681741,9.98043669 L15.9784676,9.83975976 C15.9854716,9.41301237 15.7765021,9.01538186 15.4289584,8.77856958 L15.3080843,8.70576904 L6.98091663,4.30191979 C6.84000274,4.2272932 6.69148033,4.18205864 6.54230652,4.16410553 L6.39317323,4.15516805 Z" id="形状结合"></path>
            </g>
        </g>
    </g>
</svg>
